<svg xmlns="http://www.w3.org/2000/svg" viewBox="0 0 100 100" width="100" height="100">
  <defs>
    <linearGradient id="logoFlameGrad" x1="0%" y1="90%" x2="90%" y2="0%">
      <stop offset="0%" stopColor="#4F46E5" />
      <stop offset="35%" stopColor="#7C3AED" />
      <stop offset="65%" stopColor="#003BD1" />
      <stop offset="100%" stopColor="#00FFFF" />
    </linearGradient>
    <linearGradient id="innerRibbonGrad" x1="10%" y1="10%" x2="90%" y2="90%">
      <stop offset="0%" stopColor="#00FFFF" />
      <stop offset="50%" stopColor="#003BD1" />
      <stop offset="100%" stopColor="#312E81" />
    </linearGradient>
    <radialGradient id="flameCoreHighlight" cx="65%" cy="30%" r="35%">
      <stop offset="0%" stopColor="#FFFFFF" />
      <stop offset="50%" stopColor="#CEF6FF" stopOpacity="0.8" />
      <stop offset="100%" stopColor="#003BD1" stopOpacity="0" />
    </radialGradient>
  </defs>
  <rect width="100" height="100" rx="20" fill="#111625" />
  <path
    d="M 68 28 C 45 8, 12 25, 12 55 C 12 78, 30 90, 52 90 C 72 90, 84 76, 85 64 C 85.5 58, 79 56, 76 60 C 70 71, 58 78, 48 78 C 30 78, 24 64, 24 50 C 24 34, 38 22, 58 22 C 68 22, 75 28, 77 35 C 78.5 40, 84 41, 85 35 C 87 23, 78 8, 68 28 Z"
    fill="url(#logoFlameGrad)"
  />
  <path
    d="M 52 82 C 34 82, 21 68, 20 50 C 19 33, 31 18, 48 16 C 58 15, 62 18, 64 22 C 65 24, 61 28, 58 27 C 48 24, 34 32, 32 48 C 30 63, 40 72, 53 72 C 60 72, 65 67, 68 62 C 70 59, 74 61, 73 64 C 68 76, 61 82, 52 82 Z"
    fill="url(#innerRibbonGrad)"
    opacity="0.85"
  />
  <path
    d="M 62 25 C 65 14, 75 5, 80 8 C 85 11, 82 25, 78 32 C 74 38, 66 40, 62 35 C 58 31, 59 36, 62 25 Z"
    fill="url(#logoFlameGrad)"
  />
  <circle
    cx="72"
    cy="22"
    r="11"
    fill="url(#flameCoreHighlight)"
  />
  <circle
    cx="72"
    cy="22"
    r="3"
    fill="#FFFFFF"
  />
</svg>
